<?xml version="1.0" standalone="no"?>
<!DOCTYPE svg PUBLIC "-//W3C//DTD SVG 20010904//EN"
 "http://www.w3.org/TR/2001/REC-SVG-20010904/DTD/svg10.dtd">
<svg version="1.0" xmlns="http://www.w3.org/2000/svg"
 width="256.000000pt" height="256.000000pt" viewBox="0 0 256.000000 256.000000"
 preserveAspectRatio="xMidYMid meet">

<g transform="translate(0.000000,256.000000) scale(0.100000,-0.100000)"
fill="#000000" stroke="none">
<path d="M2425 2235 c-49 -18 -136 -56 -193 -84 -56 -28 -107 -51 -112 -51 -6
0 -23 -8 -38 -19 -15 -10 -67 -41 -116 -67 -127 -70 -129 -71 -256 -158 -215
-148 -423 -329 -575 -501 -117 -133 -205 -238 -218 -262 -30 -53 -190 -283
-197 -283 -4 0 -12 12 -19 27 l-12 26 -20 -32 c-22 -37 -24 -51 -6 -51 6 0 18
-4 26 -9 10 -7 3 -25 -32 -87 -53 -91 -239 -471 -258 -527 -11 -32 -11 -39 3
-53 22 -23 53 -10 69 29 74 185 269 564 295 574 8 3 14 14 14 25 0 21 171 284
215 332 14 15 25 29 25 32 0 3 28 40 62 82 115 142 436 457 465 457 13 0 63
42 63 51 0 13 228 169 246 169 9 0 28 12 42 26 27 26 225 140 240 138 17 -3
31 2 45 15 21 22 135 77 167 81 28 3 70 22 80 35 3 3 31 16 62 29 71 29 85 57
40 79 -11 6 -47 -2 -107 -23z"/>
</g>
</svg>
